<svg width="294" height="273" viewBox="0 0 294 273" fill="none" xmlns="http://www.w3.org/2000/svg">
  <style>
    path { fill: #0a0a0a; }
    @media (prefers-color-scheme: dark) {
      path { fill: #ededed; }
    }
  </style>
  <path d="M 257.39 199.02 C247.23,203.94 233.49,202.43 224.23,195.36 C223.65,194.92 223.28,194.67 222.92,194.41 C220.39,192.59 218.19,190.32 146.70,119.28 C102.15,75.02 74.52,48.28 71.94,46.97 C66.69,44.29 59.63,43.48 54.24,44.93 C46.08,47.13 39.07,55.95 39.02,64.07 C39.00,67.50 38.80,67.70 33.62,69.33 C30.66,70.26 26.72,72.05 24.87,73.31 C23.02,74.56 20.88,75.97 20.12,76.43 C18.97,77.14 18.81,75.37 19.18,65.71 C19.60,54.82 19.84,53.71 23.33,46.64 C33.93,25.19 59.87,17.69 82.15,29.63 C86.12,31.76 102.00,46.79 143.81,88.00 C174.78,118.53 200.54,143.65 201.06,143.83 C201.64,144.04 202.00,127.72 202.00,101.58 C202.00,78.16 201.67,59.00 201.26,59.00 C200.85,59.00 193.06,66.45 183.94,75.56 L 167.37 92.11 L 160.16 85.31 L 152.96 78.50 L 179.27 52.09 C193.75,37.56 206.47,25.33 207.54,24.91 C208.62,24.48 222.43,24.11 238.23,24.07 L 266.97 24.00 L 273.50 29.84 L 273.50 181.50 L 271.24 185.72 C268.18,191.45 263.27,196.17 257.39,199.02 ZM 237.88 259.02 C226.74,261.14 214.46,258.24 204.35,251.12 C201.52,249.13 175.31,223.76 146.11,194.75 C116.91,165.74 92.56,142.00 92.01,142.00 C91.35,142.00 91.00,156.40 91.00,183.86 L 91.00 225.72 L 123.87 192.53 L 130.82 199.02 C134.63,202.58 137.81,205.86 137.88,206.30 C138.10,207.80 89.79,255.87 86.48,257.44 C83.76,258.73 78.61,259.00 56.57,259.00 C27.61,259.00 25.21,258.63 21.17,253.49 L 19.00 250.73 L 19.00 176.62 L 19.00 102.50 L 21.86 96.46 C26.86,85.89 34.80,81.03 47.00,81.06 C48.00,81.07 48.87,81.03 49.68,80.99 C50.73,80.95 51.66,80.91 52.58,80.97 C60.99,81.49 68.90,90.06 156.00,176.34 C187.62,207.67 215.07,234.31 217.00,235.54 C218.93,236.78 222.84,238.32 225.70,238.98 C237.24,241.63 249.22,234.19 252.52,222.33 C253.41,219.12 254.29,216.00 254.48,215.39 C254.67,214.78 256.80,213.78 259.22,213.18 C261.63,212.57 265.49,210.71 267.79,209.04 C270.10,207.37 272.44,206.00 272.99,206.00 C274.60,206.00 274.18,221.03 272.41,227.07 C267.66,243.25 253.90,255.99 237.88,259.02 ZM 239.21 179.65 C244.20,183.34 250.65,182.25 252.89,177.34 C253.67,175.64 254.00,155.29 254.00,109.45 L 254.00 44.00 L 222.00 44.00 L 222.00 93.56 C222.00,124.89 222.41,145.76 223.11,150.31 C224.94,162.17 231.35,173.86 239.21,179.65 ZM 39.00 171.50 L 39.00 238.00 L 71.00 238.00 L 70.98 189.75 C70.97,163.14 70.51,138.41 69.97,134.62 C67.72,119.07 55.14,101.00 46.56,101.00 C44.33,101.00 42.25,101.75 41.00,103.00 C39.04,104.96 39.00,106.33 39.00,171.50 Z"/>
</svg>
